# File created by Blade
# Date/Time:  Wed Apr 08 17:35:20 2015
#---------------------------------------------------------
:version 1.10
:name HOM
:units
  mass 1.0
  length 1.000000
  angle deg
:documentation
     Acclaim Skeleton File
:root
   axis xyz
   order TX TY TZ RX RY RZ
   position 0.000000 0.000000 0.000000
   orientation 0 0 0
:bonedata
   begin
      id 1
      name Spine_dum
      direction 0.000000 1.000000 0.000000
      length 5.893853
      axis 0.0 0.0 0.0 xyz
   end
   begin
      id 2
      name LeftUpLeg_dum
      direction 1.000000 0.000000 0.000000
      length 3.697939
      axis 0.0 0.0 0.0 xyz
   end
   begin
      id 3
      name RightUpLeg_dum
      direction -1.000000 0.000000 0.000000
      length 3.697939
      axis 0.0 0.0 0.0 xyz
   end
   begin
      id 4
      name Spine
      direction 0.000000 1.000000 0.000000
      length 0.000000
      axis 0.0 0.0 0.0 xyz
      dof rx ry rz
   end
   begin
      id 5
      name Spine_dum1
      direction 0.000000 1.000000 0.000000
      length 16.447146
      axis 0.0 0.0 0.0 xyz
   end
   begin
      id 6
      name Spine_dum2
      direction 0.000000 1.000000 0.000000
      length 10.900383
      axis 0.0 0.0 0.0 xyz
   end
   begin
      id 7
      name Spine_dum3
      direction 0.000000 1.000000 0.000000
      length 10.900383
      axis 0.0 0.0 0.0 xyz
   end
   begin
      id 8
      name Head
      direction 0.000000 1.000000 0.000000
      length 4.527550
      axis 0.0 0.0 0.0 xyz
      dof rx ry rz
   end
   begin
      id 9
      name LeftShoulder
      direction 1.000000 0.000000 0.000000
      length 8.219464
      axis 0.0 0.0 -90.0 xyz
      dof rx ry rz
   end
   begin
      id 10
      name LeftArm
      direction 1.000000 0.000000 0.000000
      length 11.094937
      axis 0.0 0.0 -90.0 xyz
      dof rx ry rz
   end
   begin
      id 11
      name LeftForeArm
      direction 1.000000 0.000000 0.000000
      length 9.103875
      axis 0.0 0.0 -90.0 xyz
      dof ry rz rx
   end
   begin
      id 12
      name LeftHand
      direction 0.000000 0.000000 0.000000
      length 0.000000
      axis 0.0 0.0 -90.0 xyz
      dof rx ry rz
   end
   begin
      id 13
      name LeftHand_dum1
      direction 0.000000 0.000000 0.000000
      length 0.000000
      axis 0.0 0.0 -90.0 xyz
   end
   begin
      id 14
      name LeftHand_dum2
      direction 1.000000 0.000000 0.000000
      length 3.937000
      axis 0.0 0.0 -90.0 xyz
   end
   begin
      id 15
      name LeftHandThumb1
      direction 0.000000 0.000000 1.000000
      length 3.937000
      axis 0.0 0.0 -90.0 xyz
      dof rx rz ry
   end
   begin
      id 16
      name RightShoulder
      direction -1.000000 0.000000 0.000000
      length 8.219464
      axis 0.0 0.0 90.0 xyz
      dof rx ry rz
   end
   begin
      id 17
      name RightArm
      direction -1.000000 0.000000 0.000000
      length 11.094937
      axis 0.0 0.0 90.0 xyz
      dof rx ry rz
   end
   begin
      id 18
      name RightForeArm
      direction -1.000000 0.000000 0.000000
      length 9.103875
      axis 0.0 0.0 90.0 xyz
      dof ry rz rx
   end
   begin
      id 19
      name RightHand
      direction 0.000000 0.000000 0.000000
      length 0.000000
      axis 0.0 0.0 90.0 xyz
      dof rx ry rz
   end
   begin
      id 20
      name RightHand_dum1
      direction 0.000000 0.000000 0.000000
      length 0.000000
      axis 0.0 0.0 90.0 xyz
   end
   begin
      id 21
      name RightHand_dum2
      direction -1.000000 0.000000 0.000000
      length 3.937000
      axis 0.0 0.0 90.0 xyz
   end
   begin
      id 22
      name RightHandThumb1
      direction 0.000000 0.000000 1.000000
      length 3.937000
      axis 0.0 0.0 90.0 xyz
      dof rx rz ry
   end
   begin
      id 23
      name LeftUpLeg
      direction 0.000000 -1.000000 0.000000
      length 16.181467
      axis 0.0 0.0 0.0 xyz
      dof rx ry rz
   end
   begin
      id 24
      name LeftLeg
      direction 0.000000 -1.000000 0.000000
      length 16.501392
      axis 0.0 0.0 0.0 xyz
      dof rx ry rz
   end
   begin
      id 25
      name LeftFoot
      direction 0.000000 -0.258819 0.965926
      length 6.408245
      axis 15.0 0.0 0.0 xyz
      dof rx ry rz
   end
   begin
      id 26
      name LeftToeBase
      direction 0.000000 0.000000 1.000000
      length 2.952750
      axis 0.0 0.0 0.0 xyz
      dof rx ry rz
   end
   begin
      id 27
      name RightUpLeg
      direction 0.000000 -1.000000 0.000000
      length 16.181467
      axis 0.0 0.0 0.0 xyz
      dof rx ry rz
   end
   begin
      id 28
      name RightLeg
      direction 0.000000 -1.000000 0.000000
      length 16.501392
      axis 0.0 0.0 0.0 xyz
      dof rx ry rz
   end
   begin
      id 29
      name RightFoot
      direction 0.000000 -0.258819 0.965926
      length 6.408245
      axis 15.0 0.0 0.0 xyz
      dof rx ry rz
   end
   begin
      id 30
      name RightToeBase
      direction 0.000000 0.000000 1.000000
      length 2.952750
      axis 0.0 0.0 0.0 xyz
      dof rx ry rz
   end
:hierarchy
   begin
      root Spine_dum LeftUpLeg_dum RightUpLeg_dum
      Spine_dum Spine
      LeftUpLeg_dum LeftUpLeg
      RightUpLeg_dum RightUpLeg
      Spine Spine_dum1 Spine_dum2 Spine_dum3
      Spine_dum1 Head
      Spine_dum2 LeftShoulder
      Spine_dum3 RightShoulder
      LeftShoulder LeftArm
      LeftArm LeftForeArm
      LeftForeArm LeftHand
      LeftHand LeftHand_dum1 LeftHand_dum2
      LeftHand_dum1 LeftHandThumb1
      RightShoulder RightArm
      RightArm RightForeArm
      RightForeArm RightHand
      RightHand RightHand_dum1 RightHand_dum2
      RightHand_dum1 RightHandThumb1
      LeftUpLeg LeftLeg
      LeftLeg LeftFoot
      LeftFoot LeftToeBase
      RightUpLeg RightLeg
      RightLeg RightFoot
      RightFoot RightToeBase
   end

# File created by Blade
# Date/Time:  Wed Apr 08 17:35:25 2015
# Frame Rate: 120.000 fps
#------------------------------------------------------
:FULLY-SPECIFIED
:DEGREES
777
root 8.383689 37.079599 3.837011 96.941628 -73.412878 -60.598693
Spine -39.676844 1.061381 11.665873
Head 31.868880 3.363111 8.835849
LeftShoulder -11.148840 25.399364 11.548350
LeftArm 19.902825 27.101241 -75.758062
LeftForeArm 19.787174 -0.000000 25.311826
LeftHand -12.578679 -0.000000 -11.742561
LeftHandThumb1 -26.253704 0.000000 33.147579
RightShoulder -40.172989 -53.099018 17.782863
RightArm 56.012487 -23.109466 45.924667
RightForeArm 5.285583 -0.000000 25.920868
RightHand -1.342509 0.000000 23.936856
RightHandThumb1 -24.326973 -0.000000 -32.862282
LeftUpLeg -48.364342 13.712316 -2.134780
LeftLeg 22.972972 -0.000000 -0.000000
LeftFoot -12.449382 8.724275 -4.063096
LeftToeBase 3.555859 -0.000000 -0.000000
RightUpLeg -129.694947 -0.481934 32.909933
RightLeg 108.950221 -0.000000 -0.000000
RightFoot -16.037090 -9.872084 11.064633
RightToeBase -18.976294 -0.000000 0.000000
778
root 8.404445 37.080891 3.840749 97.554693 -73.487180 -61.108037
Spine -39.703698 0.963176 11.735826
Head 31.982993 3.424038 8.849003
LeftShoulder -11.145431 25.417789 11.551811
LeftArm 19.917628 27.104346 -75.724642
LeftForeArm 19.783036 -0.000000 25.193848
LeftHand -12.581570 -0.000000 -11.718132
LeftHandThumb1 -26.253704 0.000000 33.147579
RightShoulder -40.224150 -53.113175 17.820990
RightArm 56.041797 -23.127165 45.946576
RightForeArm 5.496720 -0.000000 25.972280
RightHand -1.253571 -0.000000 23.875283
RightHandThumb1 -24.326973 -0.000000 -32.862282
LeftUpLeg -48.508250 13.735878 -2.208612
LeftLeg 22.984410 -0.000000 -0.000000
LeftFoot -12.413221 8.881566 -4.037142
LeftToeBase 3.534857 -0.000000 -0.000000
RightUpLeg -129.794538 -0.351075 33.028233
RightLeg 108.112512 -0.000000 -0.000000
RightFoot -14.429250 -8.743279 12.047473
RightToeBase -16.911540 -0.000000 0.000000
779
root 8.428265 37.084512 3.843146 98.128392 -73.521338 -61.517406
Spine -39.790857 0.838713 11.870388
Head 32.109842 3.501777 8.861820
LeftShoulder -11.165425 25.435096 11.544656
LeftArm 19.896324 27.056068 -75.733506
LeftForeArm 19.816751 -0.000000 25.105421
LeftHand -12.565797 -0.000000 -11.789339
LeftHandThumb1 -26.253704 0.000000 33.147579
RightShoulder -40.181766 -53.128487 17.756241
RightArm 56.004828 -23.159172 46.032844
RightForeArm 5.694072 -0.000000 26.048228
RightHand -1.137926 -0.000000 23.742289
RightHandThumb1 -24.326973 -0.000000 -32.862282
LeftUpLeg -48.715674 13.736490 -2.268923
LeftLeg 22.977775 -0.000000 -0.000000
LeftFoot -12.361396 9.083557 -3.974230
LeftToeBase 3.520467 -0.000000 -0.000000
RightUpLeg -129.916709 -0.164834 33.279306
RightLeg 107.262848 -0.000000 -0.000000
RightFoot -13.151447 -7.746281 13.177016
RightToeBase -15.054450 -0.000000 0.000000
780
root 8.449698 37.086666 3.848571 98.774138 -73.575920 -62.052288
Spine -39.827097 0.764471 11.956127
Head 32.245129 3.535828 8.882142
LeftShoulder -11.164447 25.477724 11.528639
LeftArm 19.949384 27.017312 -75.707606
LeftForeArm 19.849277 -0.000000 24.988932
LeftHand -12.587810 -0.000000 -11.756547
LeftHandThumb1 -26.253704 0.000000 33.147579
RightShoulder -40.287426 -53.174794 17.855203
RightArm 56.037934 -23.129483 46.057704
RightForeArm 5.878409 -0.000000 26.123246
RightHand -1.114860 0.000000 23.589903
RightHandThumb1 -24.326973 -0.000000 -32.862282
LeftUpLeg -48.871324 13.798839 -2.363531
LeftLeg 22.976942 -0.000000 -0.000000
LeftFoot -12.319348 9.232828 -3.928868
LeftToeBase 3.476113 -0.000000 -0.000000
RightUpLeg -129.971336 0.049438 33.570042
RightLeg 106.445407 -0.000000 -0.000000
RightFoot -12.477276 -7.163573 13.892572
RightToeBase -15.707290 -0.000000 0.000000
781
root 8.469979 37.086547 3.854332 99.363393 -73.629593 -62.577665
Spine -39.813939 0.668783 12.045852
Head 32.380600 3.598528 8.946313
LeftShoulder -11.163875 25.467364 11.512420
LeftArm 19.975958 27.033102 -75.641979
LeftForeArm 19.863035 0.000000 24.883965
LeftHand -12.596881 -0.000000 -11.754982
LeftHandThumb1 -26.253704 0.000000 33.147579
RightShoulder -40.321112 -53.224125 17.909884
RightArm 56.017067 -23.090336 46.123728
RightForeArm 6.018564 -0.000000 26.190711
RightHand -1.014947 0.000000 23.459696
RightHandThumb1 -24.326973 -0.000000 -32.862282
LeftUpLeg -48.997614 13.920527 -2.496023
LeftLeg 22.992140 -0.000000 -0.000000
LeftFoot -12.299287 9.326063 -3.876597
LeftToeBase 3.449408 -0.000000 -0.000000
RightUpLeg -129.999642 0.271161 33.928206
RightLeg 105.656968 -0.000000 -0.000000
RightFoot -12.413862 -7.013980 13.882712
RightToeBase -15.689769 -0.000000 0.000000
782
root 8.487324 37.085127 3.863328 99.929563 -73.689792 -63.117177
Spine -39.763386 0.593358 12.120984
Head 32.535892 3.618726 8.961349
LeftShoulder -11.136047 25.452460 11.480945
LeftArm 19.978111 26.992392 -75.616759
LeftForeArm 19.914238 -0.000000 24.801640
LeftHand -12.556303 -0.000000 -11.815383
LeftHandThumb1 -26.253704 0.000000 33.147579
RightShoulder -40.380534 -53.261552 17.983585
RightArm 56.000254 -23.059522 46.164241
RightForeArm 6.213392 -0.000000 26.254190
RightHand -0.925236 -0.000000 23.218837
RightHandThumb1 -24.326973 -0.000000 -32.862282
LeftUpLeg -49.083338 14.095622 -2.663765
LeftLeg 23.003915 -0.000000 -0.000000
LeftFoot -12.309091 9.340743 -3.840895
LeftToeBase 3.453287 -0.000000 -0.000000
RightUpLeg -130.005236 0.515731 34.366053
RightLeg 104.883383 -0.000000 -0.000000
RightFoot -12.597535 -7.494030 12.988576
RightToeBase -14.975375 -0.000000 0.000000
783
root 8.506480 37.086532 3.872770 100.515660 -73.745614 -63.618393
Spine -39.778482 0.541487 12.178681
Head 32.677572 3.629140 8.999184
LeftShoulder -11.139913 25.468858 11.447346
LeftArm 20.056009 27.006321 -75.543590
LeftForeArm 19.873301 0.000000 24.733886
LeftHand -12.579671 -0.000000 -11.779845
LeftHandThumb1 -26.253704 0.000000 33.147579
RightShoulder -40.486960 -53.300664 18.098327
RightArm 55.964361 -23.030364 46.192665
RightForeArm 6.397071 -0.000000 26.341583
RightHand -0.824645 -0.000000 22.965558
RightHandThumb1 -24.326973 -0.000000 -32.862282
LeftUpLeg -49.266869 14.344209 -2.904864
LeftLeg 23.042349 -0.000000 -0.000000
LeftFoot -12.277385 9.234706 -3.789427
LeftToeBase 3.448246 -0.000000 -0.000000
RightUpLeg -130.063957 0.815401 34.867576
RightLeg 104.115709 -0.000000 -0.000000
RightFoot -12.845780 -8.707340 11.865949
RightToeBase -14.795877 -0.000000 0.000000
784
root 8.524451 37.084051 3.881982 100.958103 -73.806744 -64.043281
Spine -39.713513 0.461319 12.225530
Head 32.816069 3.607771 9.023739
LeftShoulder -11.138604 25.428574 11.419508
LeftArm 20.109509 27.026995 -75.468184
LeftForeArm 19.912728 -0.000000 24.671343
LeftHand -12.574860 -0.000000 -11.757072
LeftHandThumb1 -26.253704 0.000000 33.147579
RightShoulder -40.565571 -53.323361 18.202163
RightArm 55.919249 -22.993998 46.223461
RightForeArm 6.470803 -0.000000 26.422540
RightHand -0.755095 -0.000000 22.752700
RightHandThumb1 -24.326973 -0.000000 -32.862282
LeftUpLeg -49.374201 14.526855 -3.100881
LeftLeg 23.088271 -0.000000 -0.000000
LeftFoot -12.260461 9.213198 -3.737579
LeftToeBase 3.426165 -0.000000 -0.000000
RightUpLeg -130.103739 1.065757 35.380574
RightLeg 103.396177 -0.000000 -0.000000
RightFoot -13.184092 -10.493195 10.988886
RightToeBase -15.356277 -0.000000 0.000000
